<svg xmlns="http://www.w3.org/2000/svg" version="1.1" xmlns:xlink="http://www.w3.org/1999/xlink" xmlns:svgjs="http://svgjs.dev/svgjs" width="1500" height="1500" viewBox="0 0 1500 1500"><g transform="matrix(1,0,0,1,-0.21332335329316265,-0.21332335329350371)"><svg viewBox="0 0 334 334" data-background-color="#ffffff" preserveAspectRatio="xMidYMid meet" height="1500" width="1500" xmlns="http://www.w3.org/2000/svg" xmlns:xlink="http://www.w3.org/1999/xlink"><g id="tight-bounds" transform="matrix(1,0,0,1,0.04749999999998522,0.04750000000001364)"><svg viewBox="0 0 333.90454557049503 333.90454557049503" height="333.90454557049503" width="333.90454557049503"><g><svg></svg></g><g><svg viewBox="0 0 333.90454557049503 333.90454557049503" height="333.90454557049503" width="333.90454557049503"><g><path d="M0 166.952c0-92.205 74.747-166.952 166.952-166.952 92.205 0 166.952 74.747 166.953 166.952 0 92.205-74.747 166.952-166.953 166.953-92.205 0-166.952-74.747-166.952-166.953zM166.952 320.296c84.689 0 153.343-68.654 153.344-153.344 0-84.689-68.654-153.343-153.344-153.343-84.689 0-153.343 68.654-153.343 153.343 0 84.689 68.654 153.343 153.343 153.344z" data-fill-palette-color="tertiary" fill="#ff5858" stroke="transparent"></path><ellipse rx="160.27418187383762" ry="160.27418187383762" cx="166.95227278524752" cy="166.95227278524752" fill="#ff5858" stroke="transparent" stroke-width="0" fill-opacity="1" data-fill-palette-color="tertiary"></ellipse></g><g transform="matrix(1,0,0,1,74.80212080423874,71.17305217166896)"><svg viewBox="0 0 184.30030396201755 191.55844122715712" height="191.55844122715712" width="184.30030396201755"><g><svg viewBox="0 0 184.30030396201755 191.55844122715712" height="191.55844122715712" width="184.30030396201755"><g><svg viewBox="0 0 184.30030396201755 191.55844122715712" height="191.55844122715712" width="184.30030396201755"><g id="textblocktransform"><svg viewBox="0 0 184.30030396201755 191.55844122715712" height="191.55844122715712" width="184.30030396201755" id="textblock"><g><svg viewBox="0 0 184.30030396201755 191.55844122715712" height="191.55844122715712" width="184.30030396201755"><path d="M183.869 41.086C183.002 21.202 180.533 15.674 180.533 15.674 172.952-4.806 163.49-0.392 154.991 2.551 139.984 2.67 125.038 7.045 110.066 9.391 78.64 9.749 46.946 3.863 15.676 18.378 12.739 22.832-3.047 19.253 0.522 43.631 1.458 53.771 4.872 65.026 4.768 74.331 5.236 75.962 5.886 72.223 6.163 74.57 7.133 80.893 8.719 77.91 10.019 81.648 8.208 91.63 9.507 99.941 10.746 108.65 8.563 110.917 5.764 109.843 4.508 117.359 4.378 122.808 3.676 121.774 2.905 121.535 2.342 121.376 1.207 121.973 1.398 123.683 2.047 129.528-0.743 132.909 1.008 138.635-0.197 144.839 1.839 150.207 1.562 156.928 1.528 158.28 1.718 159.433 2.021 159.752 3.364 161.462 1.406 164.802 1.614 168.421 15.39 193.156 30.336 176.056 44.451 187.43 48.116 179.476 45.36 190.253 46.825 188.583 47.968 186.634 48.8 194.707 50.091 190.134 50.29 188.822 49.987 185.72 50.698 186.316 51.07 186.634 51.4 186.555 51.452 184.725 51.529 181.982 50.845 183.692 50.663 182.26 52.63 175.022 52.145 192.241 53.99 191.526 53.904 189.418 53.366 186.396 54.467 186.793 55.558 183.771 55.593 181.266 56.563 188.066 56.598 189.537 56.771 190.571 57.049 191.287 60.081 183.89 63.096 193.912 66.276 190.571 68.226 186.913 70.097 192.56 72.073 191.168 72.766 190.054 73.468 188.066 74.135 191.406 82.305 192.122 91.013 189.14 98.759 191.526 119.458 187.072 141.578 193.355 163.404 187.469 168.55 185.203 173.896 181.982 178.913 179.397 178.913 179.397 182.976 172.318 182.976 140.504S183.843 112.667 183.973 87.335C184.103 62.003 184.709 60.969 183.843 41.086Z" opacity="1" fill="#ff5858" data-fill-palette-color="tertiary"></path><g transform="matrix(1,0,0,1,30.05534021302916,20.326479041326117)"><svg width="124.18962353595923" viewBox="1.35 -33.75 27.779999999999998 33.75" height="150.9054831445049" data-palette-color="#ffffff"><path d="M1.35-33.75L11.73 0 18.73 0 29.13-33.75 23.93-33.75 15.25-3.65 15.23-3.65 6.55-33.75 1.35-33.75Z" opacity="1" transform="matrix(1,0,0,1,0,0)" fill="#ffffff" class="wordmark-text-0" data-fill-palette-color="quaternary" id="text-0"></path></svg></g></svg></g></svg></g></svg></g><g></g></svg></g></svg></g></svg></g><defs></defs></svg><rect width="333.90454557049503" height="333.90454557049503" fill="none" stroke="none" visibility="hidden"></rect></g></svg></g></svg>